<?xml version="1.0" encoding="UTF-8"?>
<!-- Created with Inkscape (http://www.inkscape.org/) -->
<svg width="512" height="512" version="1.1" viewBox="0 0 512 512" xml:space="preserve" xmlns="http://www.w3.org/2000/svg" xmlns:xlink="http://www.w3.org/1999/xlink"><defs><linearGradient id="linearGradient11" x1="109.94" x2="402.06" y1="430.07" y2="81.928" gradientUnits="userSpaceOnUse"><stop stop-color="#1d172f" offset=".39173"/><stop stop-color="#54173e" offset="1"/></linearGradient></defs><g fill="url(#linearGradient11)"><path d="m256.79 3.252c-10.879-0.034186-21.767 2.7408-31.508 8.334l-164.27 94.33c-19.481 11.186-31.582 32.032-31.652 54.527l-0.59375 189.69c-0.07044 22.495 11.9 43.416 31.311 54.725l163.68 95.359c19.411 11.309 43.482 11.386 62.963 0.19922l164.27-94.33c19.481-11.186 31.582-32.032 31.652-54.527l0.59375-189.69c0.0553-17.676-8.1101-42.081-20.691-53.913l-31.906 43.927c3.4053 2.4478 2.6556 5.5638 2.6423 9.83l-0.5918 189.69c-0.0147 4.6958-2.4743 8.9285-6.541 11.264l-164.27 94.33c-4.0667 2.3352-8.9558 2.3196-13.008-0.041l-163.68-95.359c-4.052-2.3606-6.4815-6.6108-6.4668-11.307l0.5918-189.69c0.01474-4.6958 2.4743-8.9285 6.541-11.264l164.27-94.33c2.0333-1.1676 4.2726-1.7473 6.5098-1.7402 2.2371 7e-3 4.472 0.60092 6.498 1.7812l96.816 50.415 38.701-34.459-110.4-59.218c-9.7054-5.6543-20.576-8.499-31.455-8.5332z" fill="url(#linearGradient11)" stroke-linecap="round" stroke-linejoin="round" stroke-miterlimit="25"/></g><path d="m112.43 229.1c21.213 44.548 98.995 151.32 98.995 151.32s21.213 24.042 44.548 0c23.335-24.042 99.45-146.68 151.32-218.5 31.437-43.528 96.874-128.69 96.874-128.69s12.728-14.849-12.021-12.021c-24.749 2.8284-118.09 89.849-170.41 142.13-33.027 32.998-89.803 107.48-89.803 107.48s-45.613-54.084-63.64-72.832c-14.193-14.761-77.075-13.435-55.861 31.113z" fill="#170b28" style="paint-order:normal"/></svg>
