<?xml version="1.0" encoding="UTF-8" standalone="no"?>
<!-- Created with Inkscape (http://www.inkscape.org/) -->

<svg
   width="512"
   height="512"
   viewBox="0 0 512 512"
   version="1.1"
   id="svg1"
   xml:space="preserve"
   inkscape:version="1.4 (86a8ad7, 2024-10-11)"
   sodipodi:docname="logo.svg"
   inkscape:export-filename="C:\Users\Nadine\Desktop\Weiterbildung ganzer Kurs\Icons\todolist\logo.png"
   inkscape:export-xdpi="96"
   inkscape:export-ydpi="96"
   xmlns:inkscape="http://www.inkscape.org/namespaces/inkscape"
   xmlns:sodipodi="http://sodipodi.sourceforge.net/DTD/sodipodi-0.dtd"
   xmlns:xlink="http://www.w3.org/1999/xlink"
   xmlns="http://www.w3.org/2000/svg"
   xmlns:svg="http://www.w3.org/2000/svg"><sodipodi:namedview
     id="namedview1"
     pagecolor="#505050"
     bordercolor="#eeeeee"
     borderopacity="1"
     inkscape:showpageshadow="0"
     inkscape:pageopacity="0"
     inkscape:pagecheckerboard="0"
     inkscape:deskcolor="#505050"
     inkscape:document-units="px"
     inkscape:zoom="1.4142136"
     inkscape:cx="202.58609"
     inkscape:cy="246.42671"
     inkscape:window-width="1920"
     inkscape:window-height="1009"
     inkscape:window-x="1358"
     inkscape:window-y="-8"
     inkscape:window-maximized="1"
     inkscape:current-layer="layer5" /><defs
     id="defs1"><linearGradient
       id="linearGradient10"
       inkscape:collect="always"><stop
         style="stop-color:#1d172f;stop-opacity:1;"
         offset="0.39172778"
         id="stop10" /><stop
         style="stop-color:#54173e;stop-opacity:1;"
         offset="1"
         id="stop11" /></linearGradient><inkscape:path-effect
       effect="fillet_chamfer"
       id="path-effect6"
       is_visible="true"
       lpeversion="1"
       nodesatellites_param="F,0,0,1,0,25,0,1 @ F,0,0,1,0,25,0,1 @ F,0,0,1,0,25,0,1 @ F,0,0,1,0,25,0,1 @ F,0,0,1,0,25,0,1 @ F,0,0,1,0,25,0,1"
       radius="0"
       unit="px"
       method="auto"
       mode="F"
       chamfer_steps="1"
       flexible="false"
       use_knot_distance="true"
       apply_no_radius="true"
       apply_with_radius="true"
       only_selected="false"
       hide_knots="false" /><inkscape:path-effect
       effect="fillet_chamfer"
       id="path-effect3"
       is_visible="true"
       lpeversion="1"
       nodesatellites_param="F,0,0,1,0,42.822034,0,1 @ F,0,0,1,0,34.071505,0,1 @ F,0,0,1,0,0,0,1 @ F,0,0,1,0,42.822034,0,1 | F,0,0,1,0,42.822034,0,1 @ F,0,0,1,0,0,0,1 @ F,0,0,1,0,34.084614,0,1 @ F,0,0,1,0,42.822034,0,1"
       radius="0"
       unit="px"
       method="auto"
       mode="F"
       chamfer_steps="1"
       flexible="false"
       use_knot_distance="true"
       apply_no_radius="true"
       apply_with_radius="true"
       only_selected="false"
       hide_knots="false" /><linearGradient
       inkscape:collect="always"
       xlink:href="#linearGradient10"
       id="linearGradient11"
       x1="109.93507"
       y1="430.07437"
       x2="402.06482"
       y2="81.927696"
       gradientUnits="userSpaceOnUse" /></defs><g
     inkscape:groupmode="layer"
     id="layer5"
     inkscape:label="Box"
     style="fill:url(#linearGradient11)"><path
       d="M 256.79102,3.2519531 C 245.91191,3.2177669 235.02378,5.9927459 225.2832,11.585938 L 61.009766,105.91602 c -19.481142,11.18639 -31.581937,32.03239 -31.652344,54.52734 l -0.59375,189.6875 c -0.07044,22.49495 11.899803,43.41605 31.310547,54.72461 l 163.679691,95.35937 c 19.41074,11.30856 43.48174,11.38561 62.96289,0.19922 l 164.27343,-94.33008 c 19.48116,-11.18639 31.58195,-32.03239 31.65235,-54.52734 l 0.59375,-189.6875 c 0.0553,-17.67575 -8.11013,-42.08065 -20.69149,-53.91293 l -31.90586,43.92668 c 3.40528,2.44781 2.65562,5.56383 2.64227,9.83 l -0.5918,189.6875 c -0.0147,4.69581 -2.47434,8.92852 -6.54101,11.26367 L 261.875,456.99414 c -4.06668,2.33515 -8.95583,2.31965 -13.00781,-0.041 L 85.185547,361.59375 c -4.051983,-2.36065 -6.481491,-6.61083 -6.466797,-11.30664 l 0.591797,-189.6875 c 0.01474,-4.69581 2.474339,-8.92852 6.541015,-11.26367 L 250.125,55.005859 c 2.03334,-1.167578 4.27263,-1.747256 6.50977,-1.740234 2.23713,0.007 4.47205,0.60092 6.49804,1.78125 L 359.94848,105.46215 398.64989,71.003388 288.24609,11.785156 C 278.54072,6.1308776 267.67012,3.2861218 256.79102,3.2519531 Z"
       style="fill:url(#linearGradient11);stroke-linecap:round;stroke-linejoin:round;stroke-miterlimit:25"
       id="path9"
       sodipodi:nodetypes="sccccccccscccccccccccccsccccs" /></g><g
     inkscape:groupmode="layer"
     id="layer6"
     inkscape:label="Haken"><path
       style="fill:#170b28;fill-opacity:1;stroke:none;stroke-width:50;stroke-linecap:square;stroke-linejoin:round;stroke-miterlimit:25;stroke-dasharray:none;stroke-dashoffset:0;stroke-opacity:1;paint-order:normal;fill-rule:nonzero"
       d="m 112.42998,229.10259 c 21.2132,44.54773 98.99495,151.32086 98.99495,151.32086 0,0 21.2132,24.04163 44.54772,0 23.33453,-24.04163 99.45049,-146.67547 151.32086,-218.49599 31.43678,-43.52785 96.87363,-128.693441 96.87363,-128.693441 0,0 12.72792,-14.849243 -12.02082,-12.020816 -24.74874,2.828428 -118.08653,89.848537 -170.41274,142.128467 -33.0268,32.99759 -89.80256,107.48023 -89.80256,107.48023 0,0 -45.61304,-54.08401 -63.63961,-72.832 -14.19346,-14.76149 -77.074633,-13.43504 -55.86143,31.11269 z"
       id="path10"
       sodipodi:nodetypes="zccaccacsz" /></g></svg>
